HIERARCHY
ROOT ui
{
	 OFFSET 0 0 0
	 CHANNELS 3 XPosition YPosition Z Position
	 EndSite
	 {
	 OFFSET 0 -1 0
	 }
}
ROOT li
{
	 OFFSET 0 0 0
	 CHANNELS 3 XPosition YPosition Z Position
	 EndSite
	 {
	 OFFSET 0 -1 0
	 }
}
ROOT ul
{
	 OFFSET 0 0 0
	 CHANNELS 3 XPosition YPosition Z Position
	 EndSite
	 {
	 OFFSET 0 -1 0
	 }
}
ROOT ll
{
	 OFFSET 0 0 0
	 CHANNELS 3 XPosition YPosition Z Position
	 EndSite
	 {
	 OFFSET 0 -1 0
	 }
}
ROOT tt
{
	 OFFSET 0 0 0
	 CHANNELS 3 XPosition YPosition Z Position
	 EndSite
	 {
	 OFFSET 0 -1 0
	 }
}
ROOT tb
{
	 OFFSET 0 0 0
	 CHANNELS 3 XPosition YPosition Z Position
	 EndSite
	 {
	 OFFSET 0 -1 0
	 }
}
ROOT td
{
	 OFFSET 0 0 0
	 CHANNELS 3 XPosition YPosition Z Position
	 EndSite
	 {
	 OFFSET 0 -1 0
	 }
}
ROOT v
{
	 OFFSET 0 0 0
	 CHANNELS 3 XPosition YPosition Z Position
	 EndSite
	 {
	 OFFSET 0 -1 0
	 }
}
ROOT bn
{
	 OFFSET 0 0 0
	 CHANNELS 3 XPosition YPosition Z Position
	 EndSite
	 {
	 OFFSET 0 -1 0
	 }
}
MOTION
Frames: 19
Frame Time: 0.002
0.01451009464263916	9.35846984386444E-4	0		0.4462318115234375	-2.406831787109375	0		-1.0161885986328125	-0.14738868713378905	0		-0.8695094604492187	-2.322227783203125	0		1.816490478515625	-1.3552044677734374	0		3.511921875	-0.76222802734375	0		4.791494140625	-0.5651695556640625	0		5.90307763671875	0.332876708984375	0		0.00527327299118042	5.9859765625	0		
-0.03758950805664062	0.002559485912322998	0		0.45084719848632815	-2.420192138671875	0		-1.02138330078125	-0.15155661010742189	0		-0.8019193115234375	-2.33765087890625	0		1.8684068603515624	-1.3523955078125	0		3.520905029296875	-0.7557058715820313	0		4.7882587890625	-0.5714583129882812	0		5.91195703125	0.33236419677734375	0		0.005238254070281983	5.98570703125	0		
0.014160702705383301	4.253700077533722E-4	0		0.43969403076171876	-2.41425048828125	0		-1.0216102905273436	-0.15178309631347656	0		-0.8431701049804687	-2.33717529296875	0		1.866094970703125	-1.35662646484375	0		3.52149755859375	-0.7660100708007812	0		4.80485107421875	-0.5820550537109375	0		5.91104638671875	0.3500575256347656	0		0.03721075057983399	5.9919150390625	0		
-0.046248306274414064	-0.00475213098526001	0		0.448193115234375	-2.423620361328125	0		-1.0091008911132813	-0.16220352172851563	0		-0.7889178466796875	-2.36131884765625	0		1.8678319091796876	-1.3528956298828125	0		3.517088134765625	-0.7711952514648438	0		4.8004267578125	-0.5882560424804687	0		5.91142578125	0.33175848388671875	0		0.004837779045104981	5.984255859375	0		
0.013455989837646485	3.3240001648664475E-5	0		0.43376025390625	-2.424565185546875	0		-1.068363525390625	-0.1543578338623047	0		-0.8174168090820313	-2.3660078125	0		1.8704776611328124	-1.35014990234375	0		3.541427001953125	-0.7868446044921875	0		4.79799560546875	-0.5904569091796875	0		5.9151767578125	0.33944015502929686	0		0.0064811320304870605	5.98204052734375	0		
0.017075969696044923	0.003813410043716431	0		0.4534212646484375	-2.417065673828125	0		-0.9918421630859375	-0.15682354736328125	0		-0.7819816284179687	-2.37176904296875	0		1.8700150146484376	-1.35031982421875	0		3.557260986328125	-0.770310302734375	0		4.812625	-0.5859168701171875	0		5.91888671875	0.34815740966796876	0		0.021283130645751953	5.99263037109375	0		
0.012518322944641114	-2.3579999804496766E-4	0		0.4467882080078125	-2.424084228515625	0		-0.9864201049804687	-0.1620350646972656	0		-0.7886141967773438	-2.378775390625	0		1.860582763671875	-1.34630224609375	0		3.511494873046875	-0.785685791015625	0		4.799080078125	-0.5888585205078125	0		5.92226220703125	0.3399124450683594	0		0.004683064937591553	5.9827890625	0		
0.012002696990966797	-3.224309980869293E-4	0		0.44421539306640623	-2.426140380859375	0		-0.9909884643554687	-0.16504275512695313	0		-0.78539453125	-2.39292138671875	0		1.8472978515625	-1.3321842041015626	0		3.536864501953125	-0.7922532958984375	0		4.7954560546875	-0.5949378662109375	0		5.90890673828125	0.3489927062988281	0		0.005206798076629639	5.98168505859375	0		
0.008420703887939453	-0.0033243288993835447	0		0.425561279296875	-2.43188671875	0		-1.051615234375	-0.1700509490966797	0		-0.7910330200195312	-2.397881103515625	0		1.848823486328125	-1.32829052734375	0		3.5421875	-0.800442626953125	0		4.800763671875	-0.6041387939453124	0		5.91224072265625	0.3408158264160156	0		0.004731823921203613	5.981630859375	0		
0.010934766769409179	-3.97597998380661E-4	0		0.454996826171875	-2.432429931640625	0		-1.0290020751953124	-0.16146064758300782	0		-0.7936268920898437	-2.399859619140625	0		1.853376708984375	-1.322416015625	0		3.53578173828125	-0.7923941650390625	0		4.80332373046875	-0.5982572021484375	0		5.9216708984375	0.33856735229492185	0		0.005215642929077148	5.97959326171875	0		
0.010396690368652343	-3.845759928226471E-4	0		0.4264916687011719	-2.428937744140625	0		-1.0195604858398437	-0.16261039733886717	0		-0.7653822021484376	-2.411338623046875	0		1.8490167236328126	-1.31135302734375	0		3.5541123046875	-0.7997418823242187	0		4.81067529296875	-0.6044270629882813	0		5.920447265625	0.3565387878417969	0		0.004734393119812012	5.9796064453125	0		
0.009861084938049316	-3.3625200390815737E-4	0		0.4787860107421875	-2.43780859375	0		-1.024166259765625	-0.16648220825195312	0		-0.7435154418945312	-2.44467529296875	0		1.84846826171875	-1.31132275390625	0		3.5446220703125	-0.7965731811523438	0		4.79913525390625	-0.604235595703125	0		5.9199150390625	0.3565291748046875	0		0.004257421970367431	5.97965478515625	0		
-0.042645439147949216	0.0016482130289077758	0		0.4492511901855469	-2.436226806640625	0		-1.0246995849609375	-0.16638668823242186	0		-0.7084926147460937	-2.469201904296875	0		1.8450968017578124	-1.3012060546875	0		3.546857177734375	-0.80957421875	0		4.8164736328125	-0.6115098266601563	0		5.923248046875	0.34848583984375	0		0.0037868220806121827	5.97973974609375	0		
0.008804176330566406	-1.2833000719547272E-4	0		0.4555084228515625	-2.44722802734375	0		-1.0252265625	-0.16625271606445313	0		-0.7473154907226562	-2.4844111328125	0		1.845851806640625	-1.28412255859375	0		3.5313427734375	-0.8082294311523438	0		4.79396240234375	-0.6100574340820313	0		5.9147275390625	0.3486842346191406	0		0.003325265884399414	5.97986279296875	0		
0.008290042877197265	3.3773999661207196E-5	0		0.43109185791015625	-2.43965625	0		-1.0047977294921875	-0.16944241333007812	0		-0.7122785034179687	-2.508860595703125	0		1.854252685546875	-1.28813623046875	0		3.570207275390625	-0.8437942504882813	0		4.795181640625	-0.6249810791015625	0		5.92735400390625	0.3565540771484375	0		0.02004849624633789	5.98972900390625	0		
0.01186165428161621	0.004166141033172608	0		0.46056170654296874	-2.43997900390625	0		-1.0140527954101564	-0.15507435607910156	0		-0.7321488037109375	-2.528317626953125	0		1.849174560546875	-1.2628726806640624	0		3.5514658203125	-0.7993108520507812	0		4.79704052734375	-0.6038726196289063	0		5.9309990234375	0.36461663818359374	0		0.019621423721313477	5.98993115234375	0		
0.007317127227783203	4.793330132961273E-4	0		0.4471271057128906	-2.435516357421875	0		-0.9475232543945312	-0.15498085021972657	0		-0.67030712890625	-2.56615234375	0		1.839736572265625	-1.2594964599609375	0		3.556510986328125	-0.82621142578125	0		4.80412255859375	-0.6288235473632813	0		5.93025048828125	0.34878912353515623	0		0.0030312259197235107	5.979453125	0		
0.003813072919845581	-0.002183572053909302	0		0.4534505615234375	-2.446357421875	0		-1.0168284301757813	-0.14548707580566406	0		-0.6792608642578125	-2.5927158203125	0		1.8354591064453125	-1.2481683349609376	0		3.5260869140625	-0.8234531860351563	0		4.79268115234375	-0.627411376953125	0		5.9208037109375	0.34915179443359373	0		-0.012531050682067871	5.969	0		
0.006435770034790039	0.0010899460315704345	0		0.4529869384765625	-2.446037841796875	0		-1.0570970458984374	-0.13545291137695312	0		-0.6892290649414062	-2.621219482421875	0		1.825309326171875	-1.230697021484375	0		3.558380615234375	-0.838748046875	0		4.7991376953125	-0.63327392578125	0		5.92937841796875	0.3492376708984375	0		0.0023134539127349853	5.98006396484375	0		
